<?xml version="1.0" encoding="UTF-8"?>
<svg version="1.1" xmlns="http://www.w3.org/2000/svg" width="512" height="512">
<path d="M0,0 L238,0 L247,3 L254,8 L259,17 L260,23 L260,40 L312,40 L322,44 L332,53 L339,61 L353,76 L360,84 L374,99 L383,109 L391,119 L394,127 L394,243 L388,253 L381,258 L374,260 L347,260 L347,313 L344,321 L338,328 L330,332 L300,332 L300,383 L297,393 L290,401 L281,405 L258,405 L255,415 L249,424 L241,431 L231,436 L221,438 L208,437 L198,433 L189,427 L182,418 L178,409 L178,405 L80,405 L79,412 L73,422 L64,431 L54,436 L44,438 L30,437 L18,432 L8,423 L2,413 L0,408 L0,405 L-3,406 L-8,418 L-15,427 L-25,434 L-34,437 L-47,438 L-60,435 L-71,428 L-79,419 L-84,407 L-84,405 L-98,405 L-108,400 L-114,393 L-116,388 L-116,163 L-112,155 L-104,148 L-99,146 L-69,146 L-69,92 L-65,83 L-56,75 L-50,73 L-22,73 L-22,23 L-20,15 L-14,6 L-5,1 Z M2,17 L-3,20 L-5,24 L-5,73 L193,74 L202,78 L207,83 L210,88 L211,92 L212,112 L243,112 L243,24 L240,19 L236,17 Z M260,57 L260,113 L266,114 L267,70 L269,66 L271,65 L307,65 L312,68 L322,78 L329,86 L341,99 L352,111 L363,123 L367,128 L368,131 L368,149 L364,153 L310,154 L316,162 L325,171 L332,179 L341,189 L345,198 L346,202 L347,243 L372,243 L377,239 L378,230 L362,229 L356,226 L353,222 L352,219 L352,192 L356,186 L361,183 L378,182 L378,136 L376,128 L369,120 L360,110 L349,98 L338,86 L327,74 L318,64 L311,58 L309,57 Z M283,81 L283,125 L290,133 L294,137 L352,137 L346,129 L338,121 L331,113 L317,98 L310,90 L302,81 Z M-47,90 L-52,95 L-52,146 L147,147 L155,151 L161,158 L164,167 L165,185 L195,185 L195,95 L190,90 Z M212,129 L212,185 L219,186 L220,141 L223,138 L261,138 L269,145 L283,160 L292,170 L304,183 L313,193 L320,202 L321,205 L321,220 L318,225 L316,226 L263,227 L269,235 L277,243 L284,251 L293,261 L297,269 L299,278 L300,315 L326,315 L330,310 L330,303 L316,302 L309,299 L305,293 L304,289 L304,268 L307,260 L313,256 L316,255 L330,254 L330,204 L326,197 L310,180 L301,170 L290,158 L279,146 L268,134 L265,131 L258,129 Z M236,153 L236,199 L245,208 L246,210 L305,210 L299,202 L290,193 L283,185 L269,170 L260,160 L254,153 Z M-95,163 L-99,167 L-100,170 L-100,326 L148,326 L148,169 L145,164 L143,163 Z M368,199 L368,213 L378,213 L378,199 Z M165,202 L165,388 L178,388 L182,377 L188,369 L188,367 L192,365 L200,360 L209,357 L227,357 L238,361 L248,369 L255,380 L258,388 L278,388 L282,384 L283,375 L266,374 L260,370 L257,364 L257,338 L261,331 L267,328 L283,327 L283,280 L281,273 L272,263 L265,255 L251,240 L242,230 L231,218 L220,206 L216,203 L213,202 Z M320,271 L320,286 L330,286 L330,271 Z M-100,343 L-100,380 L-98,385 L-95,388 L-84,388 L-79,376 L-72,367 L-62,360 L-53,357 L-35,357 L-24,361 L-16,367 L-14,367 L-12,371 L-6,381 L-4,388 L0,388 L5,376 L11,368 L20,361 L31,357 L49,357 L60,361 L68,367 L75,375 L80,388 L148,388 L148,343 Z M273,344 L273,359 L283,359 L283,344 Z M-50,373 L-58,377 L-65,385 L-68,394 L-67,404 L-61,414 L-51,420 L-41,421 L-30,417 L-22,408 L-20,403 L-20,390 L-24,382 L-32,375 L-37,373 Z M34,373 L26,377 L21,382 L17,389 L16,392 L16,401 L20,410 L24,415 L33,420 L43,421 L52,418 L60,411 L64,402 L64,391 L59,381 L53,376 L47,373 Z M211,373 L203,377 L196,385 L194,390 L194,403 L198,411 L206,418 L215,421 L225,420 L235,414 L241,404 L242,394 L239,385 L232,377 L224,373 Z " fill="#000000" transform="translate(117,37)"/>
<path d="M0,0 L34,0 L40,3 L49,12 L56,20 L70,35 L79,45 L90,57 L96,64 L97,67 L97,86 L93,90 L-1,90 L-5,87 L-6,84 L-6,6 L-2,1 Z M11,17 L11,73 L80,73 L74,65 L64,55 L57,47 L45,34 L34,22 L30,17 Z " fill="#000000" transform="translate(294,246)"/>
<path d="M0,0 L8,0 L12,4 L13,10 L10,15 L-101,126 L-103,127 L-109,127 L-114,123 L-114,114 Z " fill="#000000" transform="translate(192,218)"/>
<path d="M0,0 L8,0 L12,4 L13,9 L10,15 L-48,73 L-56,74 L-61,70 L-62,63 L-58,57 L-2,1 Z " fill="#000000" transform="translate(140,219)"/>
<path d="M0,0 L7,0 L11,3 L12,11 L5,19 L-49,73 L-51,74 L-57,74 L-62,70 L-62,62 L-55,54 L-2,1 Z " fill="#000000" transform="translate(192,270)"/>
<path d="M0,0 L19,0 L23,4 L23,12 L19,16 L16,17 L4,17 L-1,15 L-4,11 L-4,5 Z " fill="#000000" transform="translate(293,345)"/>
</svg>
