<?xml version="1.0" encoding="UTF-8"?>
<svg version="1.1" xmlns="http://www.w3.org/2000/svg" width="512" height="512">
<path d="M0,0 L7,0 L17,4 L28,16 L37,27 L48,40 L57,51 L62,52 L84,52 L113,53 L147,56 L163,59 L170,59 L186,54 L196,52 L209,52 L217,57 L220,62 L221,66 L221,99 L218,106 L215,109 L216,126 L214,138 L209,150 L203,159 L200,162 L193,162 L190,159 L190,152 L197,143 L201,132 L202,122 L200,110 L196,101 L189,90 L180,82 L164,74 L150,70 L143,69 L118,69 L99,72 L78,78 L58,86 L43,94 L35,100 L30,108 L29,113 L28,168 L81,168 L80,157 L82,144 L90,128 L100,118 L110,112 L119,109 L125,108 L138,108 L150,111 L161,117 L171,126 L178,137 L181,146 L182,151 L182,167 L178,181 L171,192 L164,199 L150,207 L137,210 L125,210 L113,207 L103,202 L93,193 L87,185 L86,181 L-72,181 L-75,178 L-75,171 L-72,168 L15,168 L15,108 L0,113 L-5,114 L-12,114 L-15,110 L-14,103 L-7,100 L10,95 L31,85 L48,75 L66,67 L57,67 L48,73 L38,77 L31,77 L23,73 L18,68 L18,66 L6,72 L-4,79 L-19,86 L-34,90 L-49,91 L-65,89 L-77,84 L-87,75 L-91,67 L-93,61 L-103,61 L-127,65 L-150,71 L-128,74 L-112,79 L-91,89 L-78,95 L-62,100 L-38,104 L-35,109 L-37,115 L-43,117 L-64,114 L-84,108 L-105,98 L-117,92 L-130,88 L-142,86 L-162,86 L-184,91 L-201,97 L-215,104 L-226,112 L-231,118 L-231,145 L-227,151 L-218,155 L-194,161 L-187,163 L-187,150 L-183,137 L-176,126 L-169,119 L-155,111 L-141,108 L-132,108 L-121,110 L-107,117 L-97,126 L-90,137 L-86,150 L-86,167 L-90,180 L-95,189 L-103,198 L-114,205 L-125,209 L-132,210 L-141,210 L-155,207 L-166,201 L-176,192 L-183,181 L-185,177 L-209,172 L-227,167 L-237,161 L-243,153 L-243,150 L-254,150 L-261,147 L-266,142 L-269,135 L-269,104 L-265,96 L-260,92 L-258,91 L-247,91 L-240,95 L-234,100 L-219,89 L-204,80 L-188,72 L-170,64 L-142,55 L-116,49 L-104,47 L-92,47 L-86,50 L-81,55 L-75,67 L-68,73 L-58,76 L-46,77 L-31,75 L-17,70 L-11,66 L-18,54 L-18,47 L-15,44 L-9,44 L-5,48 L1,58 L10,54 L4,42 L-8,23 L-14,13 L-13,7 L-7,2 Z M3,13 L5,18 L12,29 L22,47 L30,62 L33,64 L39,63 L45,59 L42,54 L30,40 L21,29 L10,16 L5,13 Z M197,65 L185,68 L190,73 L198,80 L207,93 L208,93 L208,68 L206,65 Z M-254,104 L-256,106 L-256,133 L-252,137 L-246,137 L-243,111 L-250,104 Z M-140,121 L-151,124 L-161,130 L-169,139 L-173,148 L-174,152 L-174,166 L-170,177 L-164,185 L-157,191 L-149,195 L-140,197 L-133,197 L-122,194 L-112,188 L-104,179 L-99,166 L-99,153 L-102,143 L-108,134 L-116,127 L-124,123 L-133,121 Z M128,121 L116,124 L107,130 L100,137 L95,147 L94,151 L94,167 L98,178 L107,188 L116,194 L128,197 L135,197 L146,194 L156,188 L163,180 L168,169 L169,164 L169,154 L166,144 L160,134 L152,127 L140,122 Z " fill="#000000" transform="translate(280,151)"/>
<path d="M0,0 L15,0 L25,5 L32,13 L35,21 L35,33 L31,42 L24,50 L15,54 L7,55 L-3,53 L-11,48 L-17,41 L-20,33 L-20,21 L-16,12 L-9,4 Z M3,13 L-3,17 L-6,21 L-7,30 L-4,36 L0,40 L3,41 L12,41 L18,37 L21,33 L22,24 L19,18 L14,14 L12,13 Z " fill="#000000" transform="translate(136,283)"/>
<path d="M0,0 L16,0 L26,5 L32,12 L35,19 L36,24 L36,31 L32,42 L26,49 L16,54 L7,55 L-3,53 L-11,47 L-16,41 L-19,34 L-19,20 L-14,10 L-5,2 Z M3,13 L-2,16 L-6,23 L-6,31 L-2,38 L3,41 L13,41 L19,37 L23,29 L22,22 L18,16 L13,13 Z " fill="#000000" transform="translate(403,283)"/>
</svg>
