<?xml version="1.0" encoding="UTF-8"?>
<svg version="1.1" xmlns="http://www.w3.org/2000/svg" width="512" height="512">
<path d="M0,0 L275,0 L281,3 L285,8 L286,10 L286,71 L351,71 L359,76 L365,84 L381,113 L394,136 L408,161 L412,173 L413,183 L413,229 L411,236 L405,241 L403,242 L384,242 L382,251 L377,260 L370,268 L359,275 L349,278 L332,278 L318,273 L308,265 L301,255 L297,245 L297,242 L153,242 L151,251 L145,261 L140,267 L130,274 L117,278 L101,278 L89,274 L79,267 L72,259 L67,249 L66,242 L-7,242 L-11,238 L-12,235 L-12,181 L-76,181 L-81,177 L-81,168 L-77,164 L32,164 L37,169 L37,176 L33,180 L31,181 L5,181 L5,225 L66,225 L68,216 L75,205 L82,198 L96,191 L100,190 L119,190 L130,194 L139,200 L147,209 L152,220 L153,225 L269,225 L269,17 L5,17 L5,41 L55,41 L60,45 L61,50 L59,55 L55,58 L-49,58 L-54,53 L-54,46 L-49,41 L-12,41 L-12,14 L-10,7 L-3,1 Z M286,88 L286,225 L297,225 L302,213 L308,204 L316,197 L327,192 L331,191 L350,191 L361,195 L370,201 L377,209 L382,219 L384,225 L396,225 L396,183 L394,173 L386,157 L371,130 L357,105 L347,88 Z M102,207 L94,211 L88,216 L83,225 L82,229 L82,238 L86,249 L94,257 L104,261 L115,261 L123,258 L132,250 L136,242 L137,231 L134,221 L125,211 L116,207 Z M334,207 L325,211 L320,216 L316,221 L313,230 L313,237 L316,247 L325,257 L335,261 L347,261 L357,256 L365,247 L368,238 L368,230 L364,219 L359,213 L350,208 L347,207 Z " fill="#000000" transform="translate(99,120)"/>
<path d="M0,0 L8,0 L12,4 L12,54 L121,54 L125,59 L125,65 L121,70 L-29,70 L-33,67 L-34,60 L-31,55 L-30,54 L-5,54 L-5,7 L-3,2 Z " fill="#000000" transform="translate(92,194)"/>
<path d="M0,0 L60,0 L65,4 L66,11 L63,16 L61,17 L-2,17 L-5,14 L-5,3 Z " fill="#000000" transform="translate(5,205)"/>
</svg>
