<?xml version="1.0" encoding="UTF-8"?>
<svg version="1.1" xmlns="http://www.w3.org/2000/svg" width="512" height="512">
<path d="M0,0 L272,0 L282,4 L290,11 L295,21 L296,32 L293,53 L365,53 L375,55 L385,59 L395,67 L402,76 L407,87 L433,166 L435,176 L435,204 L427,269 L424,279 L418,288 L410,295 L400,299 L369,299 L367,308 L361,319 L352,329 L342,336 L330,341 L325,342 L309,342 L296,338 L285,330 L279,322 L275,314 L273,305 L273,299 L89,299 L87,308 L81,319 L72,329 L62,336 L50,341 L45,342 L29,342 L19,339 L10,334 L4,329 L-2,320 L-6,310 L-7,299 L-35,299 L-44,295 L-51,289 L-56,280 L-57,276 L-57,263 L-53,232 L-50,227 L-46,224 L-38,224 L-33,227 L-31,231 L-31,235 L248,235 L251,208 L272,36 L272,27 L268,23 L5,23 L-1,26 L-5,32 L-8,49 L-14,54 L-22,54 L-28,50 L-29,48 L-29,35 L-26,21 L-19,11 L-12,5 L-4,1 Z M290,75 L272,220 L271,235 L408,235 L410,224 L413,199 L413,182 L337,181 L330,178 L325,173 L322,164 L323,151 L328,112 L333,103 L341,98 L344,97 L385,96 L384,90 L378,82 L370,77 L360,75 Z M350,118 L348,123 L344,155 L344,160 L407,160 L395,123 L393,118 Z M-33,257 L-35,267 L-34,274 L-30,277 L-2,277 L4,267 L11,259 L13,257 Z M77,257 L83,265 L87,273 L89,277 L243,277 L245,265 L245,257 Z M268,257 L266,270 L266,277 L278,277 L285,266 L293,258 L293,257 Z M357,257 L363,265 L367,273 L369,277 L395,277 L401,273 L405,265 L405,257 Z M39,268 L29,273 L22,279 L16,290 L15,295 L15,302 L18,310 L22,315 L29,319 L33,320 L41,320 L52,316 L62,307 L67,298 L68,294 L68,284 L63,274 L56,269 L53,268 Z M319,268 L309,273 L302,279 L297,287 L295,294 L295,302 L298,310 L302,315 L309,319 L313,320 L321,320 L332,316 L342,307 L347,298 L348,294 L348,284 L344,276 L336,269 L333,268 Z " fill="#000000" transform="translate(77,85)"/>
<path d="M0,0 L96,0 L101,4 L103,11 L101,17 L97,21 L94,22 L2,22 L-4,18 L-6,14 L-6,7 L-3,2 Z " fill="#000000" transform="translate(18,160)"/>
<path d="M0,0 L81,0 L87,4 L89,8 L88,17 L83,22 L-2,22 L-7,18 L-8,16 L-8,6 L-3,1 Z " fill="#000000" transform="translate(8,266)"/>
<path d="M0,0 L56,0 L62,4 L63,6 L63,16 L58,21 L56,22 L0,22 L-6,18 L-8,10 L-5,3 Z " fill="#000000" transform="translate(40,213)"/>
</svg>
