<?xml version="1.0" encoding="UTF-8"?>
<svg version="1.1" xmlns="http://www.w3.org/2000/svg" width="512" height="512">
<path d="M0,0 L378,0 L385,4 L389,11 L389,48 L465,48 L469,52 L469,60 L466,63 L468,72 L485,123 L494,133 L499,139 L501,144 L501,222 L497,228 L493,231 L490,232 L453,232 L453,241 L448,253 L441,262 L432,268 L421,272 L405,272 L393,267 L385,261 L378,252 L374,242 L374,240 L188,240 L186,248 L180,258 L170,267 L160,271 L157,272 L141,272 L130,268 L121,262 L118,258 L114,260 L107,266 L100,270 L92,272 L77,272 L66,268 L57,262 L50,253 L45,241 L24,240 L18,237 L14,232 L13,230 L13,208 L0,208 L-7,204 L-11,198 L-11,10 L-7,4 L-3,1 Z M4,16 L4,192 L327,193 L331,195 L332,197 L332,204 L329,207 L181,208 L186,219 L188,224 L374,224 L379,212 L381,208 L354,207 L351,204 L350,198 L351,194 L355,193 L373,192 L373,16 Z M389,64 L389,192 L418,193 L430,196 L439,202 L447,211 L450,216 L486,216 L486,184 L474,183 L471,182 L470,176 L472,171 L475,169 L486,168 L486,151 L484,146 L482,144 L417,143 L410,139 L407,134 L406,130 L406,87 L407,82 L410,81 L453,80 L448,64 Z M421,96 L421,128 L469,128 L459,97 L458,96 Z M29,208 L29,224 L46,224 L50,213 L52,208 Z M81,208 L71,212 L64,219 L61,226 L61,238 L66,248 L74,254 L79,256 L90,256 L100,251 L106,244 L109,234 L108,225 L103,216 L95,210 L88,208 Z M145,208 L135,212 L127,221 L125,227 L125,238 L129,246 L134,251 L140,255 L143,256 L154,256 L164,251 L170,244 L173,236 L173,229 L170,220 L164,213 L156,209 L152,208 Z M410,208 L402,211 L395,216 L390,225 L389,234 L392,244 L399,252 L408,256 L419,256 L429,251 L435,243 L437,238 L437,226 L433,218 L425,211 L417,208 Z " fill="#000000" transform="translate(11,120)"/>
<path d="M0,0 L326,0 L331,5 L331,12 L326,16 L0,16 L-5,12 L-5,4 Z " fill="#000000" transform="translate(37,280)"/>
<path d="M0,0 L6,1 L9,4 L10,10 L7,15 L5,16 L-2,16 L-6,12 L-6,5 L-3,1 Z " fill="#000000" transform="translate(158,344)"/>
<path d="M0,0 L6,1 L9,4 L10,10 L7,15 L5,16 L-2,16 L-6,12 L-6,5 L-3,1 Z " fill="#000000" transform="translate(94,344)"/>
<path d="M0,0 L6,1 L9,4 L9,12 L5,16 L-2,16 L-6,12 L-7,7 L-4,2 Z " fill="#000000" transform="translate(423,344)"/>
</svg>
