<?xml version="1.0" encoding="UTF-8"?>
<svg version="1.1" xmlns="http://www.w3.org/2000/svg" width="512" height="512">
<path d="M0,0 L62,0 L98,2 L126,6 L145,11 L157,17 L166,26 L178,42 L191,62 L198,73 L198,75 L200,75 L204,59 L209,53 L211,52 L221,51 L230,51 L245,53 L256,57 L261,60 L264,67 L264,80 L260,89 L253,95 L244,98 L237,99 L214,100 L222,115 L241,129 L256,142 L265,151 L272,162 L277,177 L279,187 L281,231 L281,247 L279,283 L274,333 L271,345 L265,354 L261,356 L206,356 L200,353 L194,346 L193,337 L189,338 L180,338 L170,335 L155,327 L150,328 L137,332 L117,335 L91,337 L63,338 L1,338 L-42,336 L-68,333 L-84,329 L-88,327 L-93,328 L-108,336 L-116,338 L-125,338 L-129,337 L-130,346 L-137,354 L-142,356 L-197,356 L-203,352 L-208,342 L-211,325 L-216,269 L-217,246 L-217,232 L-215,187 L-211,170 L-206,158 L-198,148 L-188,138 L-177,129 L-162,118 L-157,113 L-150,100 L-174,99 L-184,97 L-192,93 L-198,86 L-200,81 L-200,67 L-197,60 L-185,54 L-176,52 L-166,51 L-157,51 L-147,52 L-141,57 L-136,74 L-134,75 L-132,70 L-117,46 L-105,30 L-96,20 L-88,14 L-75,9 L-51,4 L-22,1 Z M11,11 L-30,13 L-60,17 L-75,21 L-75,22 L-35,21 L102,21 L139,22 L136,20 L111,15 L93,13 L78,12 L41,11 Z M-11,31 L-56,32 L-75,33 L-88,52 L-102,74 L-114,94 L-114,95 L-57,94 L122,94 L177,95 L175,90 L163,70 L152,53 L144,41 L138,33 L123,32 L74,31 Z M-172,63 L-184,66 L-188,68 L-188,80 L-182,85 L-176,87 L-167,88 L-146,89 L-143,90 L-141,86 L-147,78 L-151,64 L-152,63 Z M215,63 L211,78 L207,84 L205,85 L207,89 L240,87 L248,84 L252,80 L252,68 L242,64 L237,63 Z M-93,34 L-104,48 L-117,68 L-132,93 L-145,116 L-151,125 L-165,135 L-175,143 L-185,152 L-193,160 L-197,166 L-202,180 L-204,191 L-205,215 L-205,262 L-201,309 L-200,317 L-196,318 L-196,288 L-194,273 L-193,271 L-188,270 L-184,274 L-181,299 L-177,309 L-170,317 L-160,322 L-147,324 L-128,326 L-115,326 L-105,321 L-108,320 L-126,320 L-151,317 L-161,314 L-170,306 L-174,298 L-177,279 L-177,263 L-175,260 L-167,259 L-159,266 L-151,271 L-115,279 L-89,284 L-85,285 L-84,288 L-84,295 L-95,312 L-99,317 L-94,315 L-90,313 L-84,314 L-80,318 L-63,322 L-34,325 L-15,326 L78,326 L110,324 L137,320 L145,317 L150,313 L156,314 L176,325 L179,326 L190,326 L218,323 L228,320 L234,316 L241,308 L244,302 L248,273 L251,270 L257,271 L259,279 L260,317 L264,316 L268,272 L269,255 L269,224 L268,197 L266,182 L261,167 L255,158 L244,147 L230,136 L215,125 L212,122 L200,100 L183,72 L173,56 L161,39 L157,34 L153,35 L167,56 L180,77 L193,99 L193,106 L174,106 L144,105 L-82,105 L-112,106 L-127,106 L-129,105 L-129,98 L-114,73 L-102,54 L-90,36 L-90,34 Z M-166,275 L-166,283 L-164,294 L-160,300 L-154,305 L-137,308 L-129,309 L-109,309 L-102,303 L-97,294 L-109,291 L-148,283 L-158,280 Z M-101,317 Z M-102,318 Z M-184,319 L-187,325 L-191,328 L-198,329 L-197,337 L-194,344 L-193,345 L-146,345 L-141,342 L-140,336 L-164,332 L-176,326 L-183,319 Z M-105,319 Z M247,319 L238,327 L227,332 L206,335 L204,336 L205,342 L210,345 L256,345 L259,342 L262,332 L262,329 L253,327 L250,324 L248,319 Z " fill="#000000" transform="translate(224,78)"/>
<path d="M0,0 L20,0 L25,2 L28,12 L29,18 L29,26 L26,36 L22,42 L14,49 L4,53 L-26,60 L-33,61 L-46,61 L-59,57 L-70,51 L-81,51 L-90,61 L-98,67 L-113,74 L-127,78 L-145,80 L-169,80 L-186,79 L-194,74 L-198,68 L-200,59 L-200,43 L-197,33 L-191,26 L-183,22 L-164,19 L-148,18 L-136,18 L-109,20 L-94,22 L-80,22 L-61,19 L-46,12 L-30,6 L-9,1 Z M10,11 L-10,13 L-25,17 L-46,25 L-57,30 L-75,33 L-77,36 L-77,39 L-66,40 L-50,48 L-42,50 L-30,49 L-3,43 L8,39 L13,35 L17,27 L17,16 L16,12 Z M-144,30 L-144,68 L-134,67 L-134,30 Z M-157,30 L-167,31 L-167,68 L-156,68 L-156,30 Z M-122,31 L-122,64 L-112,61 L-112,32 L-114,31 Z M-179,33 L-185,36 L-188,41 L-189,45 L-189,57 L-187,65 L-182,68 L-178,68 L-178,33 Z M-100,34 L-100,53 L-93,47 L-88,37 L-88,35 L-93,34 Z " fill="#000000" transform="translate(458,243)"/>
<path d="M0,0 L16,0 L32,2 L53,8 L73,16 L79,19 L97,22 L114,22 L137,19 L159,18 L182,19 L201,22 L209,26 L216,34 L218,40 L218,62 L215,71 L207,78 L204,79 L183,80 L166,80 L146,78 L132,74 L120,69 L109,62 L101,53 L100,51 L89,51 L73,59 L66,61 L49,61 L24,56 L7,51 L-1,45 L-7,38 L-10,30 L-10,14 L-8,4 L-4,1 Z M4,11 L2,12 L1,16 L1,27 L5,35 L12,40 L29,45 L49,49 L58,50 L68,48 L84,40 L95,39 L94,34 L87,32 L72,29 L55,21 L33,14 L21,12 Z M152,30 L152,67 L162,68 L162,30 Z M174,30 L174,68 L185,68 L185,31 Z M130,31 L130,60 L138,64 L140,64 L140,31 Z M196,33 L196,68 L202,67 L205,64 L207,56 L207,46 L204,37 L198,33 Z M117,33 L106,35 L109,44 L117,53 L118,53 L118,33 Z " fill="#000000" transform="translate(36,243)"/>
<path d="M0,0 L75,0 L104,1 L126,3 L134,6 L142,13 L148,23 L151,32 L150,37 L145,40 L129,43 L109,45 L92,46 L56,47 L20,47 L-16,46 L-44,44 L-69,40 L-74,37 L-75,32 L-70,19 L-63,10 L-54,4 L-42,2 L-28,1 Z M27,11 L-18,12 L-46,14 L-53,17 L-59,24 L-61,29 L-54,31 L-24,34 L-4,35 L80,35 L113,33 L136,30 L137,27 L131,19 L126,15 L113,13 L95,12 L52,11 Z " fill="#000000" transform="translate(218,353)"/>
<path d="M0,0 L6,0 L11,5 L11,20 L8,40 L2,50 L-5,56 L-12,59 L-43,63 L-57,63 L-66,60 L-74,53 L-82,40 L-84,37 L-84,30 L-79,25 L-24,14 L-12,10 L-2,1 Z M-2,17 L-10,22 L-29,27 L-69,35 L-69,38 L-63,47 L-58,51 L-39,51 L-16,48 L-9,44 L-4,38 L-1,23 L-1,17 Z " fill="#000000" transform="translate(455,336)"/>
</svg>
