<?xml version="1.0" encoding="UTF-8"?>
<svg version="1.1" xmlns="http://www.w3.org/2000/svg" width="512" height="512">
<path d="M0,0 L36,0 L58,4 L74,9 L86,14 L102,22 L114,30 L124,38 L134,47 L142,55 L155,72 L164,87 L172,104 L178,122 L182,141 L183,148 L183,183 L180,202 L174,223 L166,241 L157,257 L147,272 L133,294 L119,316 L105,338 L119,340 L149,347 L175,355 L196,364 L207,370 L220,379 L230,388 L236,396 L241,406 L243,412 L243,431 L239,443 L230,456 L220,465 L210,472 L194,481 L169,491 L146,498 L113,505 L77,510 L51,512 L-15,512 L-50,509 L-78,505 L-106,499 L-130,492 L-149,485 L-168,476 L-180,468 L-191,459 L-200,448 L-206,435 L-207,431 L-207,412 L-203,401 L-197,392 L-189,383 L-176,373 L-160,364 L-136,354 L-106,345 L-72,338 L-69,338 L-81,319 L-95,297 L-109,275 L-124,252 L-134,233 L-141,214 L-146,192 L-147,183 L-147,148 L-143,126 L-138,109 L-131,93 L-123,78 L-113,64 L-101,50 L-92,41 L-78,30 L-59,18 L-38,9 L-22,4 Z M3,31 L-14,34 L-35,41 L-52,50 L-66,60 L-78,71 L-88,82 L-95,92 L-104,108 L-111,126 L-115,144 L-116,150 L-116,181 L-113,198 L-106,219 L-96,238 L-86,253 L-72,275 L-58,297 L-42,322 L-28,344 L-14,366 L0,388 L14,410 L17,415 L19,415 L34,391 L50,366 L66,341 L80,319 L94,297 L110,272 L124,250 L135,233 L144,214 L150,194 L152,181 L152,150 L148,130 L142,113 L134,97 L126,85 L115,72 L107,64 L91,52 L75,43 L60,37 L46,33 L33,31 Z M-56,367 L-85,372 L-113,379 L-133,386 L-154,396 L-166,405 L-173,412 L-176,418 L-176,427 L-169,437 L-157,446 L-140,455 L-116,464 L-89,471 L-63,476 L-29,480 L-14,481 L50,481 L84,478 L116,473 L141,467 L161,461 L180,453 L193,446 L202,439 L207,434 L212,427 L212,418 L208,411 L200,403 L186,394 L169,386 L142,377 L116,371 L92,367 L86,367 L79,377 L65,399 L51,421 L37,443 L29,455 L25,458 L22,459 L14,459 L8,456 L0,445 L-11,427 L-22,410 L-36,388 L-49,368 L-50,367 Z " fill="#000000" transform="translate(238,0)"/>
<path d="M0,0 L24,0 L39,4 L55,12 L67,23 L75,32 L83,48 L87,63 L87,87 L83,102 L75,118 L64,130 L55,138 L39,146 L24,150 L0,150 L-15,146 L-31,138 L-43,127 L-51,118 L-59,102 L-63,87 L-63,63 L-59,48 L-51,32 L-40,20 L-31,12 L-15,4 Z M3,31 L-10,36 L-19,43 L-26,51 L-31,63 L-32,66 L-32,84 L-27,97 L-20,106 L-12,113 L0,118 L3,119 L21,119 L34,114 L43,107 L50,99 L55,87 L56,84 L56,66 L51,53 L44,44 L36,37 L24,32 L21,31 Z " fill="#000000" transform="translate(244,91)"/>
</svg>
