<?xml version="1.0" encoding="UTF-8"?>
<svg version="1.1" xmlns="http://www.w3.org/2000/svg" width="512" height="512">
<path d="M0,0 L42,0 L67,4 L86,9 L105,16 L126,26 L145,38 L161,51 L173,62 L180,69 L189,80 L200,95 L209,110 L220,133 L228,157 L233,181 L235,201 L236,235 L249,240 L258,246 L267,255 L274,267 L277,277 L277,384 L273,396 L267,406 L260,414 L246,423 L237,426 L234,426 L231,440 L226,452 L218,464 L206,476 L193,484 L180,489 L170,491 L85,491 L85,506 L81,511 L79,512 L-19,512 L-29,508 L-36,502 L-41,494 L-43,488 L-43,472 L-39,462 L-33,455 L-25,450 L-19,448 L79,448 L84,452 L85,454 L85,469 L165,468 L178,465 L191,458 L197,453 L205,442 L210,430 L211,427 L177,427 L171,422 L170,420 L170,241 L174,236 L178,234 L213,234 L211,194 L207,170 L201,149 L192,128 L183,112 L171,95 L158,80 L150,72 L139,63 L125,53 L109,44 L92,36 L71,29 L46,24 L37,23 L6,23 L-16,26 L-39,32 L-59,40 L-78,50 L-94,61 L-105,70 L-116,80 L-123,88 L-135,103 L-146,121 L-154,137 L-161,156 L-166,175 L-169,194 L-171,234 L-136,234 L-130,238 L-128,241 L-128,420 L-133,426 L-135,427 L-190,427 L-201,424 L-213,418 L-223,409 L-230,398 L-234,388 L-235,384 L-235,277 L-231,265 L-224,254 L-214,244 L-198,236 L-194,235 L-193,201 L-191,182 L-187,161 L-181,142 L-173,122 L-163,103 L-150,84 L-139,71 L-128,59 L-120,52 L-108,42 L-90,30 L-72,20 L-47,10 L-29,5 L-8,1 Z M-182,256 L-192,258 L-200,262 L-208,270 L-212,278 L-213,282 L-213,379 L-210,388 L-203,397 L-193,403 L-186,405 L-150,405 L-150,256 Z M192,256 L192,405 L228,405 L239,401 L247,395 L253,386 L255,379 L255,282 L251,272 L244,264 L237,259 L231,257 L224,256 Z M-14,470 L-19,473 L-21,477 L-21,483 L-18,488 L-14,490 L63,490 L63,470 Z " fill="#000000" transform="translate(235,0)"/>
</svg>
