<?xml version="1.0" encoding="UTF-8"?>
<svg version="1.1" xmlns="http://www.w3.org/2000/svg" width="512" height="512">
<path d="M0,0 L146,0 L158,4 L167,11 L174,19 L178,27 L180,33 L180,51 L175,65 L167,79 L157,92 L145,105 L132,117 L150,125 L168,135 L185,147 L196,156 L206,165 L216,174 L228,187 L242,204 L254,221 L264,237 L273,253 L286,280 L296,307 L303,333 L307,357 L308,368 L308,397 L305,415 L298,436 L290,451 L280,465 L269,477 L259,486 L244,496 L225,505 L207,510 L196,512 L-50,512 L-69,508 L-84,503 L-103,493 L-115,484 L-127,473 L-136,463 L-145,449 L-153,433 L-159,415 L-162,397 L-162,368 L-159,344 L-154,321 L-147,298 L-136,271 L-123,245 L-112,227 L-101,211 L-91,198 L-79,184 L-64,168 L-54,159 L-38,146 L-20,134 L-4,125 L14,117 L7,110 L-1,103 L-13,90 L-23,76 L-31,60 L-34,51 L-34,33 L-30,22 L-23,13 L-15,6 L-7,2 Z M119,42 L10,43 L12,49 L21,62 L32,74 L42,83 L57,94 L72,103 L78,101 L93,91 L107,80 L120,68 L131,54 L136,45 L136,42 Z M61,150 L45,153 L25,160 L9,168 L-6,177 L-19,187 L-33,199 L-49,215 L-58,226 L-71,243 L-83,262 L-97,289 L-105,309 L-112,331 L-117,357 L-118,365 L-118,397 L-114,412 L-109,424 L-101,436 L-90,448 L-79,456 L-63,464 L-48,468 L-41,469 L65,469 L60,465 L55,460 L52,452 L51,427 L31,425 L17,420 L6,413 L-2,406 L-9,396 L-12,388 L-12,380 L-9,372 L-4,367 L1,364 L5,363 L13,363 L21,366 L25,368 L27,372 L34,380 L40,383 L46,384 L94,384 L103,382 L110,377 L115,367 L115,359 L112,353 L106,348 L93,345 L34,335 L22,331 L11,325 L3,318 L-4,308 L-9,297 L-12,284 L-12,270 L-8,254 L-2,242 L6,232 L14,225 L30,217 L42,214 L51,213 L52,188 L55,180 L60,175 L65,172 L69,171 L77,171 L85,174 L89,176 L91,180 L94,188 L95,213 L115,215 L129,220 L140,227 L146,232 L155,244 L158,252 L158,260 L155,268 L150,273 L145,276 L141,277 L133,277 L125,274 L120,269 L112,260 L106,257 L100,256 L52,256 L43,258 L35,264 L31,272 L31,282 L35,288 L40,292 L53,295 L112,305 L122,308 L135,315 L142,321 L150,332 L155,343 L158,356 L158,369 L155,383 L150,395 L141,407 L133,414 L123,420 L113,424 L104,426 L95,427 L94,452 L91,460 L89,464 L85,466 L81,469 L187,469 L203,466 L218,460 L228,454 L239,445 L248,435 L257,420 L263,402 L264,397 L264,365 L260,340 L255,321 L246,296 L234,271 L226,257 L216,242 L207,230 L198,219 L187,207 L175,195 L164,186 L146,173 L126,162 L108,155 L91,151 L85,150 Z " fill="#000000" transform="translate(183,0)"/>
</svg>
