<?xml version="1.0" encoding="UTF-8"?>
<svg version="1.1" xmlns="http://www.w3.org/2000/svg" width="512" height="512">
<path d="M0,0 L12,0 L18,4 L28,15 L37,26 L49,39 L58,50 L65,59 L72,71 L81,96 L88,118 L88,125 L85,132 L78,138 L53,143 L52,144 L68,152 L78,159 L80,163 L80,175 L89,186 L97,202 L101,215 L102,221 L102,248 L97,267 L89,282 L82,291 L78,296 L67,305 L54,313 L38,319 L28,321 L13,322 L-4,320 L-20,315 L-34,307 L-44,299 L-53,290 L-56,286 L-60,292 L-66,295 L-113,295 L-118,291 L-119,286 L-116,280 L-114,279 L-72,279 L-70,262 L-65,237 L-85,235 L-101,231 L-117,224 L-121,222 L-123,231 L-129,240 L-138,247 L-148,251 L-165,251 L-175,247 L-183,240 L-221,240 L-205,263 L-195,277 L-195,279 L-142,279 L-138,283 L-138,291 L-143,295 L-199,295 L-205,292 L-213,282 L-221,270 L-235,250 L-236,248 L-241,265 L-249,281 L-257,292 L-268,303 L-282,312 L-297,318 L-310,321 L-337,321 L-353,317 L-369,309 L-380,301 L-386,296 L-397,282 L-405,266 L-409,253 L-410,248 L-410,221 L-406,205 L-401,193 L-393,181 L-384,171 L-375,163 L-361,155 L-348,150 L-334,147 L-312,147 L-295,151 L-283,156 L-269,165 L-257,176 L-255,179 L-249,177 L-228,167 L-226,167 L-231,158 L-250,159 L-265,159 L-276,156 L-285,151 L-296,142 L-309,131 L-319,123 L-333,112 L-348,110 L-357,106 L-365,99 L-374,89 L-383,78 L-397,61 L-401,55 L-402,52 L-402,45 L-398,37 L-391,33 L-364,33 L-354,36 L-345,42 L-336,51 L-330,55 L-323,52 L-318,51 L-311,51 L-301,54 L-283,64 L-262,72 L-237,78 L-231,79 L-229,75 L-220,65 L-209,54 L-195,45 L-182,40 L-171,38 L-158,38 L-140,41 L-112,48 L-91,56 L-80,61 L-84,56 L-86,45 L-84,37 L-80,31 L-73,26 L-70,25 L-59,25 L-47,31 L-25,46 L-20,52 L-17,58 L-17,49 L-21,33 L-23,27 L-23,20 L-19,12 L-9,5 Z M4,16 L9,25 L24,47 L31,56 L37,60 L44,60 L41,55 L30,43 L21,32 L10,20 L7,16 Z M-2,38 L-1,48 L-1,59 L-3,69 L-7,79 L-15,89 L-27,98 L-49,108 L-75,120 L-81,123 L-81,125 L-62,132 L-48,140 L-35,150 L-26,159 L-17,153 L-4,145 L17,136 L39,129 L37,123 L38,113 L43,107 L52,102 L64,99 L62,90 L57,78 L44,76 L31,74 L23,70 L18,65 L10,54 L-1,38 Z M-66,41 L-69,43 L-69,49 L-60,56 L-45,66 L-41,75 L-37,85 L-31,82 L-28,80 L-31,69 L-35,59 L-62,41 Z M-385,49 L-379,57 L-368,70 L-359,81 L-350,91 L-342,95 L-333,95 L-318,90 L-320,86 L-333,75 L-341,68 L-353,57 L-360,51 L-366,49 Z M-170,54 L-182,57 L-192,62 L-202,70 L-215,83 L-218,88 L-204,103 L-197,111 L-186,123 L-177,133 L-174,137 L-172,137 L-166,127 L-162,122 L-150,113 L-86,81 L-83,79 L-99,70 L-118,63 L-146,56 L-159,54 Z M44,60 Z M-79,62 Z M-76,64 Z M-317,67 L-313,72 L-303,80 L-286,94 L-275,103 L-261,114 L-252,117 L-242,116 L-219,111 L-225,103 L-233,95 L-257,90 L-277,84 L-293,77 L-309,68 Z M-65,89 L-81,96 L-110,110 L-138,124 L-148,131 L-155,138 L-165,157 L-167,163 L-152,163 L-144,147 L-136,137 L-126,129 L-100,115 L-69,100 L-54,93 L-58,90 Z M-303,101 L-314,105 L-309,110 L-294,123 L-284,131 L-274,139 L-268,142 L-263,143 L-249,143 L-242,142 L-247,133 L-263,130 L-274,124 L-288,112 L-302,101 Z M62,115 L53,119 L53,121 L59,124 L67,124 L72,122 L70,115 Z M-210,125 L-230,129 L-228,134 L-214,154 L-200,175 L-196,179 L-190,174 L-181,155 L-182,151 L-196,136 L-203,128 L-206,125 Z M-109,137 L-119,143 L-127,150 L-134,160 L-139,173 L-140,183 L-132,189 L-126,196 L-122,202 L-109,210 L-94,216 L-83,219 L-77,220 L-60,220 L-56,210 L-50,195 L-42,179 L-37,171 L-44,163 L-52,156 L-63,149 L-78,142 L-97,137 Z M14,154 L16,164 L21,179 L28,178 L60,167 L55,163 L44,158 L27,154 Z M-3,162 L-10,167 L-8,176 L12,237 L14,239 L20,239 L22,237 L21,228 L0,164 L-1,162 Z M-333,163 L-348,167 L-362,174 L-372,182 L-379,189 L-386,200 L-391,211 L-394,223 L-394,246 L-390,260 L-384,272 L-377,281 L-367,291 L-354,299 L-340,304 L-325,306 L-307,304 L-295,300 L-282,293 L-270,282 L-263,273 L-256,259 L-253,247 L-268,247 L-270,249 L-275,262 L-284,274 L-295,282 L-307,287 L-316,289 L-330,289 L-343,286 L-356,279 L-365,271 L-372,260 L-376,251 L-378,241 L-378,227 L-375,214 L-368,201 L-362,194 L-352,187 L-344,183 L-334,180 L-320,179 L-304,182 L-292,188 L-285,194 L-280,193 L-270,188 L-272,184 L-281,176 L-293,169 L-308,164 L-314,163 Z M-166,179 L-175,182 L-184,189 L-190,198 L-193,207 L-193,218 L-191,223 L-177,224 L-169,231 L-161,235 L-151,235 L-143,231 L-137,222 L-136,219 L-136,212 L-139,204 L-147,197 L-153,193 L-155,188 L-156,179 Z M-217,180 L-251,196 L-284,212 L-312,225 L-327,233 L-327,234 L-309,234 L-247,231 L-240,230 L-236,225 L-234,224 L-208,223 L-208,205 L-206,194 L-215,180 Z M-24,180 L-32,193 L-39,208 L-47,232 L-52,253 L-51,262 L-44,275 L-33,287 L-23,295 L-11,301 L3,305 L16,306 L32,304 L44,300 L55,294 L66,285 L74,275 L82,260 L86,245 L86,222 L82,208 L76,196 L68,186 L63,182 L47,188 L52,193 L59,200 L66,212 L67,215 L67,223 L64,226 L57,226 L54,223 L48,211 L39,202 L30,197 L28,197 L30,207 L37,228 L37,240 L33,248 L28,252 L24,254 L16,255 L8,253 L2,249 L-3,241 L-14,208 L-19,213 L-24,225 L-25,236 L-23,247 L-17,258 L-8,267 L2,272 L10,274 L21,274 L33,270 L42,264 L49,256 L54,248 L61,247 L65,248 L66,255 L60,267 L52,276 L41,283 L32,287 L22,289 L8,289 L-5,286 L-15,281 L-25,273 L-32,263 L-36,255 L-39,245 L-40,231 L-38,218 L-33,206 L-26,197 L-20,191 L-22,182 Z M-326,194 L-338,197 L-348,203 L-356,211 L-361,221 L-363,229 L-363,239 L-359,252 L-352,262 L-343,269 L-333,273 L-328,274 L-318,274 L-305,270 L-297,264 L-290,257 L-286,248 L-309,249 L-332,249 L-338,245 L-341,241 L-342,238 L-342,228 L-338,222 L-333,218 L-301,203 L-302,200 L-314,195 Z " fill="#000000" transform="translate(410,96)"/>
</svg>
