<?xml version="1.0" encoding="UTF-8"?>
<svg version="1.1" xmlns="http://www.w3.org/2000/svg" width="512" height="512">
<path d="M0,0 L96,0 L116,4 L132,10 L148,19 L168,32 L190,46 L204,55 L245,58 L278,63 L302,69 L321,76 L332,82 L340,91 L345,101 L346,105 L346,149 L343,157 L337,164 L328,168 L319,168 L315,164 L314,160 L316,155 L320,152 L327,150 L329,146 L330,140 L330,112 L311,112 L307,108 L306,103 L308,98 L311,96 L320,95 L308,89 L284,82 L258,77 L233,74 L218,73 L23,72 L18,67 L18,61 L23,56 L50,56 L50,16 L1,17 L-17,20 L-19,32 L-24,54 L-25,56 L-3,56 L1,59 L2,66 L-1,71 L-3,72 L-28,72 L-40,69 L-49,64 L-59,55 L-68,46 L-73,47 L-94,55 L-114,59 L-145,63 L-149,67 L-151,80 L-139,80 L-135,84 L-134,89 L-136,94 L-140,96 L-151,96 L-150,118 L-147,127 L-141,132 L-110,141 L-109,131 L-105,121 L-98,111 L-90,104 L-78,98 L-69,96 L-56,96 L-44,99 L-33,105 L-24,114 L-17,126 L-14,139 L-14,149 L-15,152 L203,152 L202,149 L202,139 L205,127 L210,117 L219,107 L228,101 L238,97 L244,96 L257,96 L268,99 L278,104 L288,113 L294,123 L298,135 L298,154 L294,165 L288,175 L281,182 L271,188 L258,192 L242,192 L229,188 L219,181 L211,173 L209,168 L-21,168 L-23,173 L-33,183 L-41,188 L-54,192 L-71,192 L-83,188 L-93,182 L-100,175 L-106,165 L-109,159 L-147,148 L-155,143 L-163,134 L-166,126 L-166,63 L-162,55 L-155,49 L-147,46 L-110,41 L-91,36 L-66,24 L-40,11 L-21,4 L-8,1 Z M66,16 L66,56 L174,56 L169,52 L144,36 L129,27 L116,21 L101,17 L95,16 Z M-37,28 L-53,36 L-51,40 L-41,50 L-39,47 L-35,28 Z M-67,112 L-77,115 L-86,122 L-92,131 L-94,137 L-94,151 L-90,161 L-82,170 L-72,175 L-69,176 L-56,176 L-46,172 L-38,165 L-32,156 L-30,148 L-30,140 L-34,128 L-43,118 L-53,113 L-57,112 Z M245,112 L234,116 L224,125 L220,133 L218,140 L218,148 L221,158 L227,166 L234,172 L244,176 L257,176 L267,172 L276,164 L281,155 L282,151 L282,137 L278,127 L271,119 L262,114 L255,112 Z " fill="#000000" transform="translate(166,160)"/>
<path d="M0,0 L174,0 L179,5 L179,12 L174,16 L0,16 L-5,12 L-5,5 Z " fill="#000000" transform="translate(173,280)"/>
<path d="M0,0 L6,2 L19,15 L20,17 L20,23 L17,27 L10,28 L5,25 L-6,14 L-7,12 L-7,5 L-4,1 Z " fill="#000000" transform="translate(410,290)"/>
<path d="M0,0 L7,2 L9,5 L9,12 L2,20 L-5,27 L-12,28 L-17,25 L-18,23 L-18,17 L-11,9 L-3,1 Z " fill="#000000" transform="translate(108,290)"/>
</svg>
