<?xml version="1.0" encoding="UTF-8"?>
<svg version="1.1" xmlns="http://www.w3.org/2000/svg" width="512" height="512">
<path d="M0,0 L12,0 L20,5 L27,12 L38,21 L53,32 L71,43 L94,54 L113,61 L136,67 L161,71 L186,73 L207,74 L213,77 L219,84 L221,92 L222,187 L220,237 L216,271 L212,295 L206,319 L196,349 L185,373 L175,391 L164,407 L153,421 L141,434 L128,447 L117,456 L104,466 L84,479 L62,491 L43,500 L15,511 L12,512 L0,512 L-26,502 L-46,493 L-69,481 L-86,470 L-101,459 L-112,450 L-124,439 L-137,426 L-146,415 L-157,400 L-170,379 L-182,354 L-191,329 L-198,304 L-202,284 L-206,256 L-208,237 L-210,187 L-209,92 L-207,84 L-200,76 L-195,74 L-159,72 L-135,69 L-112,64 L-95,59 L-73,50 L-52,39 L-34,27 L-24,19 L-11,8 L-4,2 Z M4,44 L-5,52 L-22,64 L-35,72 L-53,82 L-77,92 L-103,100 L-120,104 L-148,108 L-172,110 L-173,157 L-173,200 L-171,239 L-167,272 L-161,301 L-154,325 L-144,349 L-134,368 L-124,383 L-113,397 L-101,410 L-94,417 L-83,426 L-73,434 L-58,444 L-41,454 L-12,468 L4,474 L11,473 L35,463 L57,452 L78,439 L95,426 L109,414 L121,402 L130,391 L141,376 L152,357 L161,338 L169,316 L176,288 L181,258 L184,225 L185,200 L185,157 L184,110 L152,107 L128,103 L104,97 L81,89 L59,79 L40,68 L24,57 L10,46 L8,44 Z " fill="#000000" transform="translate(250,0)"/>
<path d="M0,0 L9,0 L17,4 L22,11 L23,15 L23,22 L18,32 L-81,131 L-87,135 L-90,136 L-99,136 L-107,132 L-160,79 L-163,71 L-162,61 L-158,55 L-153,51 L-150,50 L-139,50 L-133,53 L-96,90 L-92,88 L-7,3 Z " fill="#000000" transform="translate(326,188)"/>
</svg>
