<?xml version="1.0" encoding="UTF-8"?>
<svg version="1.1" xmlns="http://www.w3.org/2000/svg" width="512" height="512">
<path d="M0,0 L36,0 L57,3 L78,8 L99,16 L118,25 L137,37 L151,48 L158,55 L166,62 L175,72 L188,89 L200,109 L208,126 L215,145 L220,166 L223,187 L223,223 L220,244 L215,265 L207,286 L198,305 L186,324 L175,338 L168,345 L161,353 L151,362 L134,375 L114,387 L97,395 L78,402 L57,407 L36,410 L0,410 L-21,407 L-42,402 L-63,394 L-82,385 L-101,373 L-115,362 L-122,355 L-130,348 L-139,338 L-152,321 L-164,301 L-172,284 L-179,265 L-184,244 L-187,223 L-187,187 L-184,166 L-179,145 L-171,124 L-162,105 L-150,86 L-139,72 L-132,65 L-125,57 L-115,48 L-98,35 L-78,23 L-61,15 L-42,8 L-21,3 Z M2,18 L-23,22 L-44,28 L-63,36 L-80,45 L-94,55 L-104,63 L-119,77 L-130,90 L-141,106 L-150,122 L-157,138 L-158,144 L-91,162 L-81,164 L-65,165 L-48,163 L-32,158 L-14,151 L5,147 L31,147 L50,151 L71,159 L83,162 L90,163 L110,163 L125,160 L168,146 L192,138 L191,133 L181,112 L171,97 L160,83 L149,71 L137,60 L119,47 L101,37 L80,28 L59,22 L34,18 Z M195,155 L132,176 L112,180 L88,180 L68,176 L47,168 L35,165 L28,164 L8,164 L-7,167 L-23,173 L-41,179 L-52,181 L-70,182 L-88,180 L-113,174 L-161,161 L-164,161 L-167,174 L-168,182 L-141,192 L-116,204 L-95,217 L-77,231 L-62,245 L-53,254 L-44,265 L-33,280 L-22,298 L-14,314 L-9,325 L-2,345 L3,363 L8,392 L28,392 L33,363 L40,338 L48,318 L56,302 L65,286 L77,269 L86,258 L97,246 L107,236 L118,227 L134,215 L149,206 L172,194 L196,185 L204,182 L201,164 L198,155 Z M-169,201 L-169,221 L-165,246 L-159,267 L-152,284 L-142,303 L-132,317 L-123,328 L-112,340 L-101,350 L-83,363 L-65,373 L-49,380 L-31,386 L-13,390 L-10,390 L-13,370 L-20,345 L-28,325 L-36,309 L-44,295 L-54,281 L-62,271 L-74,258 L-84,248 L-95,239 L-110,228 L-129,217 L-150,207 L-166,201 Z M202,201 L177,211 L154,223 L139,233 L125,244 L112,256 L102,266 L93,277 L82,292 L73,307 L65,323 L57,342 L50,366 L46,388 L46,390 L59,388 L80,382 L99,374 L114,366 L126,358 L139,348 L154,334 L166,320 L176,306 L186,288 L194,270 L200,250 L203,236 L205,221 L205,201 Z " fill="#000000" transform="translate(238,51)"/>
<path d="M0,0 L44,0 L67,3 L90,8 L114,16 L135,25 L155,36 L170,46 L183,56 L197,68 L214,85 L223,96 L233,109 L246,130 L254,145 L262,164 L270,188 L275,211 L278,234 L278,278 L275,301 L270,324 L262,348 L253,369 L242,389 L232,404 L222,417 L210,431 L193,448 L182,457 L169,467 L148,480 L133,488 L114,496 L90,504 L67,509 L44,512 L0,512 L-23,509 L-46,504 L-70,496 L-91,487 L-111,476 L-126,466 L-139,456 L-153,444 L-170,427 L-179,416 L-189,403 L-202,382 L-210,367 L-218,348 L-226,324 L-231,301 L-234,278 L-234,234 L-231,211 L-226,188 L-218,164 L-209,143 L-198,123 L-188,108 L-178,95 L-166,81 L-149,64 L-138,55 L-125,45 L-104,32 L-89,24 L-70,16 L-46,8 L-23,3 Z M2,18 L-21,21 L-46,27 L-66,34 L-90,45 L-110,57 L-126,69 L-140,81 L-157,98 L-166,109 L-179,127 L-191,148 L-200,168 L-209,195 L-214,219 L-216,236 L-216,276 L-213,299 L-207,324 L-200,344 L-189,368 L-177,388 L-165,404 L-153,418 L-136,435 L-125,444 L-107,457 L-86,469 L-66,478 L-39,487 L-15,492 L2,494 L42,494 L65,491 L90,485 L110,478 L134,467 L154,455 L170,443 L184,431 L201,414 L210,403 L223,385 L235,364 L244,344 L253,317 L258,293 L260,276 L260,236 L257,213 L251,188 L244,168 L233,144 L221,124 L209,108 L197,94 L180,77 L169,68 L151,55 L130,43 L110,34 L83,25 L59,20 L42,18 Z " fill="#000000" transform="translate(234,0)"/>
<path d="M0,0 L16,0 L29,4 L38,9 L48,18 L55,29 L59,40 L60,56 L57,70 L51,81 L42,91 L32,98 L22,102 L17,103 L-1,103 L-14,99 L-25,92 L-33,84 L-39,74 L-43,63 L-44,56 L-43,40 L-38,27 L-30,16 L-21,8 L-8,2 Z M3,18 L-8,22 L-16,28 L-22,36 L-25,44 L-26,53 L-24,63 L-19,72 L-11,80 L1,85 L15,85 L27,80 L36,71 L41,60 L42,51 L40,40 L34,30 L26,23 L17,19 L13,18 Z " fill="#000000" transform="translate(248,230)"/>
</svg>
